# AST/ASF file generated using VICON BodyLanguage
# -----------------------------------------------
:version 1.10
:name VICON
:units
  mass 1.0
  length 0.45
  angle deg
:documentation
   .ast/.asf automatically generated from VICON data using
   VICON BodyBuilder and BodyLanguage model FoxedUp or BRILLIANT.MOD
:root
   order TX TY TZ RX RY RZ
   axis XYZ
   position 0 0 0  
   orientation 0 0 0 
:bonedata
  begin
     id 1 
     name lhipjoint
     direction 0.678564 -0.644259 0.352817 
     length 2.99514 
     axis 0 0 0  XYZ
  end
  begin
     id 2 
     name lfemur
     direction 0.34202 -0.939693 0  
     length 7.29983  
     axis 0 0 20  XYZ
    dof rx ry rz
    limits (-160.0 20.0)
           (-70.0 70.0)
           (-60.0 70.0)
  end
  begin
     id 3 
     name ltibia
     direction 0.34202 -0.939693 0   
     length 8.59502   
     axis 0 0 20   XYZ
    dof rx
    limits (-10.0 170.0)
  end
  begin
     id 4 
     name lfoot
     direction 0.256607 -0.705022 0.661133   
     length 2.92136   
     axis -90 7.62852e-016 20   XYZ
    dof rx rz
    limits (-45.0 90.0)
           (-70.0 20.0)
  end
  begin
     id 5 
     name ltoes
     direction 1.53673e-011 -4.22167e-011 1   
     length 1.31421   
     axis -90 7.62852e-016 20   XYZ
    dof rx
    limits (-90.0 20.0)
  end
  begin
     id 6 
     name rhipjoint
     direction -0.664671 -0.655307 0.358867   
     length 2.94464  
     axis 0 0 0  XYZ 
  end
  begin
     id 7 
     name rfemur
     direction -0.34202 -0.939693 0   
     length 7.1902   
     axis 0 0 -20   XYZ
    dof rx ry rz
    limits (-160.0 20.0)
           (-70.0 70.0)
           (-70.0 60.0)
  end
  begin
     id 8 
     name rtibia
     direction -0.342306 -0.939589 0   
     length 7.92304   
     axis 0 0 -20   XYZ
    dof rx
    limits (-10.0 170.0)
 end
 begin
     id 9 
     name rfoot
     direction -0.135083 -0.371136 0.9187   
     length 2.14777  
     axis -90 -7.62852e-016 -20   XYZ
    dof rx rz
    limits (-45.0 90.0)
           (-20.0 70.0)
  end
  begin
     id 10 
     name rtoes
     direction -1.53535e-011 -4.21537e-011 1   
     length 1.05997   
     axis -90 -7.62852e-016 -20   XYZ
    dof rx
    limits (-90.0 20.0)
  end
  begin
     id 11 
     name lowerback
     direction -0.0195507 0.995133 0.0965771   
     length 2.09792   
     axis 0 0 0   XYZ
    dof rx ry rz
    limits (-20.0 45.0)
           (-30.0 30.0)
           (-30.0 30.0)
  end
  begin
     id 12 
     name upperback
     direction 0.00551419 0.999637 0.0263729   
     length 2.10514   
     axis 0 0 0   XYZ
    dof rx ry rz
    limits (-20.0 45.0)
           (-30.0 30.0)
           (-30.0 30.0)
  end
  begin
     id 13 
     name thorax
     direction 0.0138853 0.999728 -0.0187549   
     length 2.12411   
     axis 0 0 0   XYZ
    dof rx ry rz
    limits (-20.0 45.0)
           (-30.0 30.0)
           (-30.0 30.0)
  end
  begin
     id 14 
     name lowerneck
     direction 0.00575564 0.995441 0.0952053   
     length 2.98955   
     axis 0 0 0   XYZ
    dof rx ry rz
    limits (-20.0 45.0)
           (-30.0 30.0)
           (-30.0 30.0)
  end
  begin
     id 15 
     name upperneck
     direction 0.0362743 0.998452 -0.0421753   
     length 3.03688   
     axis 0 0 0   XYZ
    dof rx ry rz
    limits (-20.0 45.0)
           (-30.0 30.0)
           (-30.0 30.0)
  end
  begin
     id 16
     name head
     direction -0.0138164 0.799054 0.6011  
     length 1.47017  
     axis 0 0 0   XYZ
    dof rx ry rz
    limits (-20.0 45.0)
           (-30.0 30.0)
           (-30.0 30.0)
  end
  begin
     id 17 
     name lclavicle
     direction 0.925636 0.378361 -0.006363  
     length 3.33831  
     axis 0 0 0   XYZ
    dof ry rz
    limits (-20.0 10.0)
           (0.0 20.0)
  end
  begin
     id 18 
     name lhumerus
     direction 1 -4.48983e-011 -5.50319e-028   
     length 4.79344   
     axis -180 -30 -90   XYZ
    dof rx ry rz
    limits (-60.0 90.0)
           (-90.0 90.0)
           (-90.0 90.0)
  end
  begin
     id 19
     name lradius
     direction 1 -4.48905e-011 9.20478e-027   
     length 2.94221   
     axis -180 -30 -90   XYZ
    dof rx
    limits (-10.0 170.0)
  end
  begin
     id 20
     name lwrist
     direction 1 -4.4898e-011 2.08228e-026   
     length 1.4711   
     axis -1.38353e-014 90 90   XYZ
    dof ry
    limits (-180.0 0.0)
 end
  begin
     id 21 
     name lhand
     direction 1 -4.48957e-011 4.16456e-026   
     length 0.889984   
     axis -2.65735e-014 90 90   XYZ
    dof rx rz
    limits (-90.0 90.0)
           (-45.0 45.0)
  end
  begin
     id 22 
     name lfingers
     direction 1 -4.49044e-011 8.32913e-026   
     length 0.717528   
     axis -5.3147e-014 90 90   XYZ
    dof rx
    limits (0.0 90.0)
  end
  begin
     id 23
     name lthumb
     direction 0.707107 -6.35171e-011 0.707107   
     length 1.03023   
     axis -90 45 2.85299e-015   XYZ
    dof rx rz
    limits (-45.0 45.0)
           (-45.0 45.0)
  end
  begin
     id 24 
     name rclavicle
     direction -0.892514 0.445149 0.0725343   
     length 3.17271  
     axis 0 0 0   XYZ 
    dof ry rz
    limits (-10.0 20.0)
           (-20.0 0.0)
  end
  begin
     id 25 
     name rhumerus
     direction -1 -4.48952e-011 5.59695e-028  
     length 5.4863   
     axis -180 30 90   XYZ
    dof rx ry rz
    limits (-90.0 60.0)
           (-90.0 90.0)
           (-90.0 90.0)
  end
  begin
     id 26 
     name rradius
     direction -1 -4.48963e-011 1.14146e-026   
     length 3.17201   
     axis -180 30 90   XYZ
    dof rx
    limits (-10.0 170.0)
  end
  begin
     id 27 
     name rwrist
     direction -1 -4.49046e-011 2.08228e-026   
     length 1.58601   
     axis -1.38353e-014 -90 -90   XYZ
    dof ry
    limits (-180.0 0.0)
  end
  begin
     id 28
     name rhand
     direction -1 -4.48815e-011 4.16456e-026   
     length 0.874513   
     axis -2.65735e-014 -90 -90   XYZ
    dof rx rz
    limits (-90.0 90.0)
           (-45.0 45.0)
  end
  begin
     id 29
     name rfingers
     direction -1 -4.48918e-011 8.32913e-026   
     length 0.705055   
     axis -5.3147e-014 -90 -90   XYZ
    dof rx
    limits (0.0 90.0)
  end
  begin
     id 30
     name rthumb
     direction -0.707107 -6.34858e-011 0.707107   
     length 1.01232   
     axis -90 -45 -2.85299e-015   XYZ
    dof rx rz
    limits (-45.0 45.0)
           (-45.0 45.0)
  end
:hierarchy
  begin
    root lhipjoint rhipjoint lowerback
    lhipjoint lfemur
    lfemur ltibia
    ltibia lfoot
    lfoot ltoes
    rhipjoint rfemur
    rfemur rtibia
    rtibia rfoot
    rfoot rtoes
    lowerback upperback
    upperback thorax
    thorax lowerneck lclavicle rclavicle
    lowerneck upperneck
    upperneck head
    lclavicle lhumerus
    lhumerus lradius
    lradius lwrist
    lwrist lhand lthumb
    lhand lfingers
    rclavicle rhumerus
    rhumerus rradius
    rradius rwrist
    rwrist rhand rthumb
    rhand rfingers
  end

#!OML:ASF F:\VICON\USERDATA\INSTALL\rory3\rory3.ASF
:FULLY-SPECIFIED
:DEGREES
1296
root 3.97786 18.4119 -0.733813 -134.654 88.6383 -148.281
lowerback -13.5369 -0.732401 -1.68549
upperback -7.65358 -0.380794 1.08639
thorax -0.434931 0.0594721 2.03035
lowerneck -8.61236 -15.3289 2.68933
upperneck 6.84424 36.2323 3.68326
head 27.1409 31.2638 181.862
rclavicle 2.64632e-015 -1.2424e-014
rhumerus 18.8882 7.66728 -13.9299
rradius 114.096
rwrist 5.75251
rhand -29.8653 -12.9981
rfingers 7.12502
rthumb -3.18737 -42.954
lclavicle 2.64632e-015 -1.2424e-014
lhumerus 20.7701 2.78351 26.2593
lradius 112.004
lwrist 12.2804
lhand -14.5705 7.28686
lfingers 7.12502
lthumb 11.579 36.947
rfemur -9.55707 16.8194 19.3058
rtibia 11.4306
rfoot -20.6908 -20.1196
rtoes -13.1082
lfemur -11.9742 -5.06888 -21.6596
ltibia 17.024
lfoot -3.686 6.63489
ltoes -10.1239
1297
root 3.97771 18.4133 -0.731313 -132.94 88.6017 -146.594
lowerback -13.4833 -0.745608 -1.6614
upperback -7.73893 -0.396211 1.10258
thorax -0.552781 0.0557884 2.03167
lowerneck -8.47386 -15.3397 2.72508
upperneck 6.98244 36.5753 3.75907
head 27.3148 31.4235 181.949
rclavicle 3.57812e-015 -1.28216e-014
rhumerus 19.9905 7.57267 -13.6155
rradius 114.356
rwrist 6.78589
rhand -30.5808 -13.2231
rfingers 7.12502
rthumb -3.87834 -43.1675
lclavicle 3.57812e-015 -1.28216e-014
lhumerus 21.8412 3.0518 26.085
lradius 111.872
lwrist 12.1309
lhand -14.4543 7.06761
lfingers 7.12502
lthumb 11.6911 36.7214
rfemur -9.61949 16.803 19.3671
rtibia 11.4684
rfoot -20.6676 -20.1061
rtoes -13.0668
lfemur -12.0398 -5.00896 -21.5913
ltibia 17.0659
lfoot -3.72587 6.63723
ltoes -10.053
1298
root 3.97951 18.4141 -0.730778 -133.281 88.6172 -146.962
lowerback -13.5015 -0.735043 -1.66726
upperback -7.7702 -0.378385 1.07257
thorax -0.577073 0.0659644 2.00593
lowerneck -8.37982 -15.4073 2.79468
upperneck 7.01407 36.5569 3.75811
head 27.3169 31.1991 181.985
rclavicle -1.2424e-017 1.2424e-014
rhumerus 20.8952 7.14211 -13.3536
rradius 114.403
rwrist 7.85808
rhand -31.2441 -12.9498
rfingers 7.12502
rthumb -4.51884 -42.8816
lclavicle -1.2424e-017 1.2424e-014
lhumerus 22.9188 3.5939 26.0356
lradius 111.636
lwrist 12.1325
lhand -15.398 6.95539
lfingers 7.12502
lthumb 10.7809 36.6587
rfemur -9.61891 16.7575 19.3446
rtibia 11.4129
rfoot -20.6544 -20.0203
rtoes -12.8189
lfemur -12.0926 -5.03792 -21.6061
ltibia 17.1375
lfoot -3.64558 6.6598
ltoes -9.95097
1299
root 3.98028 18.4145 -0.729289 -131.615 88.5986 -145.342
lowerback -13.488 -0.705221 -1.6129
upperback -7.82496 -0.340924 1.04869
thorax -0.644096 0.0854394 1.95506
lowerneck -8.28998 -15.4874 2.9025
upperneck 7.05798 36.548 3.77725
head 27.3276 30.9606 182.001
rclavicle -1.87603e-015 6.41081e-015
rhumerus 21.6059 6.40773 -13.1693
rradius 114.275
rwrist 8.55535
rhand -31.9364 -12.2557
rfingers 7.12502
rthumb -5.18735 -42.1722
lclavicle -1.87603e-015 6.41081e-015
lhumerus 23.9589 4.3076 26.1607
lradius 111.291
lwrist 12.0578
lhand -15.7641 6.86539
lfingers 7.12502
lthumb 10.4277 36.5868
rfemur -9.61386 16.7222 19.3811
rtibia 11.2993
rfoot -20.639 -19.9135
rtoes -12.8186
lfemur -12.1624 -5.03211 -21.5544
ltibia 17.1946
lfoot -3.61848 6.67538
ltoes -10.0386
1300
root 3.98023 18.4161 -0.726981 -129.803 88.5629 -143.571
lowerback -13.3738 -0.673277 -1.56017
upperback -7.92883 -0.299653 1.02879
thorax -0.816703 0.109284 1.90961
lowerneck -8.17781 -15.5393 2.98336
upperneck 7.17634 36.7704 3.85991
head 27.4543 31.0247 182.032
rclavicle 5.40446e-016 -8.99501e-015
rhumerus 22.2247 5.49942 -13.1001
rradius 113.955
rwrist 8.97719
rhand -32.8023 -12.1124
rfingers 7.12502
rthumb -6.02334 -42.0068
lclavicle 5.40446e-016 -8.99501e-015
lhumerus 24.9602 5.12284 26.3926
lradius 110.735
lwrist 11.8851
lhand -15.8824 6.87333
lfingers 7.12502
lthumb 10.3136 36.6004
rfemur -9.60002 16.8875 19.4257
rtibia 11.1878
rfoot -20.6052 -20.0373
rtoes -12.5895
lfemur -12.2218 -5.03787 -21.4812
ltibia 17.2082
lfoot -3.6151 6.64821
ltoes -10.057
1301
root 3.98232 18.419 -0.725354 -129.414 88.5571 -143.219
lowerback -13.2853 -0.656862 -1.55149
upperback -8.00952 -0.275107 1.00404
thorax -0.950263 0.12481 1.88179
lowerneck -8.06947 -15.5822 3.02724
upperneck 7.27569 36.9663 3.91987
head 27.5752 31.1323 182.102
rclavicle 1.24862e-015 -2.48481e-016
rhumerus 22.7578 4.52784 -13.1974
rradius 113.441
rwrist 9.3098
rhand -33.887 -12.9731
rfingers 7.12502
rthumb -7.07052 -42.835
lclavicle 1.24862e-015 -2.48481e-016
lhumerus 25.8592 6.18267 26.5846
lradius 110.042
lwrist 11.9098
lhand -16.4144 7.04808
lfingers 7.12502
lthumb 9.80039 36.8
rfemur -9.57933 17.1259 19.4138
rtibia 11.0774
rfoot -20.5796 -20.2801
rtoes -12.478
lfemur -12.2572 -5.03881 -21.4654
ltibia 17.2023
lfoot -3.61868 6.65518
ltoes -10.0201
1302
root 3.98398 18.4219 -0.723828 -129.494 88.6001 -143.369
lowerback -13.3161 -0.640197 -1.59483
upperback -8.03215 -0.245613 0.98939
thorax -0.959051 0.142063 1.89453
lowerneck -8.00661 -15.5939 2.99991
upperneck 7.3396 37.1318 3.95291
head 27.6787 31.3352 182.178
rclavicle -2.76435e-015 6.55989e-015
rhumerus 23.1892 3.3772 -13.3962
rradius 112.753
rwrist 9.49495
rhand -34.7022 -13.7901
rfingers 7.12502
rthumb -7.85731 -43.6241
lclavicle -2.76435e-015 6.55989e-015
lhumerus 26.6772 7.46355 26.9121
lradius 109.392
lwrist 12.0866
lhand -16.8365 7.20402
lfingers 7.12502
lthumb 9.39314 36.9747
rfemur -9.60515 17.2431 19.3484
rtibia 10.9661
rfoot -20.5305 -20.3753
rtoes -12.5315
lfemur -12.3216 -5.02458 -21.492
ltibia 17.1793
lfoot -3.65184 6.62191
ltoes -10.0802
1303
root 3.98354 18.4249 -0.720717 -130.82 88.6335 -144.776
lowerback -13.2865 -0.652547 -1.69401
upperback -8.11405 -0.245769 0.981347
thorax -1.06124 0.149618 1.94187
lowerneck -7.82859 -15.6205 2.97279
upperneck 7.4478 37.2941 4.01594
head 27.7628 31.5044 182.221
rclavicle -5.04416e-015 -1.49089e-016
rhumerus 23.5188 2.12323 -13.6872
rradius 112.023
rwrist 9.30556
rhand -34.9713 -13.7346
rfingers 7.12502
rthumb -8.11703 -43.5587
lclavicle -5.04416e-015 -1.49089e-016
lhumerus 27.3732 8.77711 27.2992
lradius 108.646
lwrist 12.2059
lhand -17.1326 7.30498
lfingers 7.12502
lthumb 9.10742 37.0883
rfemur -9.67247 17.3134 19.2718
rtibia 10.8988
rfoot -20.4716 -20.4574
rtoes -12.5948
lfemur -12.393 -5.01797 -21.5287
ltibia 17.1348
lfoot -3.67638 6.54987
ltoes -10.1869
1304
root 3.98422 18.4277 -0.718124 -131.332 88.6208 -145.369
lowerback -13.2219 -0.6446 -1.71176
upperback -8.21551 -0.227279 0.951666
thorax -1.20388 0.164292 1.92288
lowerneck -7.59388 -15.7495 3.03938
upperneck 7.51228 37.2023 4.02723
head 27.7531 31.2865 182.303
rclavicle 1.758e-015 -9.83984e-015
rhumerus 23.6917 0.722776 -14.0541
rradius 111.273
rwrist 8.69412
rhand -34.8412 -13.6181
rfingers 7.12502
rthumb -7.9915 -43.447
lclavicle 1.758e-015 -9.83984e-015
lhumerus 28.0054 10.1079 27.7284
lradius 107.712
lwrist 12.2397
lhand -17.1737 7.45098
lfingers 7.12502
lthumb 9.0677 37.2361
rfemur -9.74671 17.3185 19.2504
rtibia 10.8549
rfoot -20.4404 -20.5212
rtoes -12.4934
lfemur -12.4777 -5.00665 -21.513
ltibia 17.1085
lfoot -3.73674 6.49892
ltoes -10.1704
1305
root 3.98575 18.4294 -0.71622 -131.823 88.6171 -145.939
lowerback -13.235 -0.623572 -1.74781
upperback -8.21972 -0.194607 0.927894
thorax -1.20286 0.181824 1.9223
lowerneck -7.49463 -15.8587 3.07719
upperneck 7.4575 36.8604 3.9635
head 27.6017 30.8766 182.3
rclavicle 1.3418e-015 4.29872e-015
rhumerus 23.8477 -0.776716 -14.5031
rradius 110.294
rwrist 8.2829
rhand -34.6134 -13.9842
rfingers 7.12502
rthumb -7.77168 -43.8214
lclavicle 1.3418e-015 4.29872e-015
lhumerus 28.6573 11.5513 28.2594
lradius 106.713
lwrist 12.4428
lhand -17.175 7.58309
lfingers 7.12502
lthumb 9.0665 37.3682
rfemur -9.80329 17.3827 19.2143
rtibia 10.7975
rfoot -20.4501 -20.5841
rtoes -12.2929
lfemur -12.5622 -4.99113 -21.5041
ltibia 17.1023
lfoot -3.78444 6.47828
ltoes -10.082
